<svg width="20" height="16" viewBox="0 0 20 16" fill="none" xmlns="http://www.w3.org/2000/svg">
<path d="M1.66634 1.39134L2.73301 0.333008L16.6663 14.2663L15.608 15.333L13.0413 12.7663C12.083 13.083 11.0663 13.2497 9.99967 13.2497C5.83301 13.2497 2.27467 10.658 0.833008 6.99967C1.40801 5.53301 2.32467 4.24134 3.49134 3.21634L1.66634 1.39134ZM9.99967 4.49967C10.6627 4.49967 11.2986 4.76307 11.7674 5.23191C12.2363 5.70075 12.4997 6.33663 12.4997 6.99967C12.5001 7.28348 12.4522 7.56528 12.358 7.83301L9.16634 4.64134C9.43406 4.54716 9.71587 4.49925 9.99967 4.49967ZM9.99967 0.749674C14.1663 0.749674 17.7247 3.34134 19.1663 6.99967C18.4862 8.72735 17.3305 10.2269 15.833 11.3247L14.6497 10.133C15.8021 9.33582 16.7315 8.25722 17.3497 6.99967C16.676 5.62462 15.63 4.46615 14.3307 3.65593C13.0314 2.84571 11.5309 2.41624 9.99967 2.41634C9.09134 2.41634 8.19968 2.56634 7.36634 2.83301L6.08301 1.55801C7.28301 1.04134 8.60801 0.749674 9.99967 0.749674ZM2.64967 6.99967C3.32337 8.37473 4.36932 9.5332 5.66862 10.3434C6.96792 11.1536 8.46845 11.5831 9.99967 11.583C10.5747 11.583 11.1413 11.5247 11.6663 11.408L9.76634 9.49967C9.18648 9.43752 8.64536 9.17874 8.23299 8.76636C7.82061 8.35399 7.56183 7.81287 7.49967 7.23301L4.66634 4.39134C3.84134 5.09967 3.14967 5.98301 2.64967 6.99967Z" fill="#686868"/>
</svg>
