<svg width="482" height="87" viewBox="0 0 482 87" fill="none" xmlns="http://www.w3.org/2000/svg">
<path d="M425.149 23.8086C425.208 22.6765 425.624 21.6804 426.346 20.8202C426.999 20.0428 427.808 19.4669 428.8 19.2058C429.266 19.0833 429.755 19.0487 430.304 18.9737C434.271 18.9737 438.167 18.9751 442.064 18.9713C442.197 18.9712 442.331 18.9191 442.464 18.8912C442.464 18.8912 442.462 18.9006 442.474 18.8886C442.502 18.8561 442.518 18.8357 442.534 18.8152C442.536 14.7772 442.531 10.7392 442.542 6.70121C442.545 5.43465 443.012 4.33037 443.82 3.36261C444.339 2.74077 444.999 2.29509 445.716 1.95497C446.111 1.76782 446.573 1.7219 447.073 1.61287C451.2 1.6124 455.258 1.61138 459.317 1.61035C460.217 1.66393 461.011 2.02589 461.716 2.54637C462.585 3.1883 463.248 4.01812 463.57 5.06697C463.708 5.51671 463.758 5.99362 463.848 6.52762C463.847 10.5374 463.846 14.4777 463.849 18.4181C463.849 18.5541 463.89 18.6901 463.912 18.8261C463.912 18.8261 463.924 18.8537 463.947 18.8914C464.069 18.9443 464.169 18.9729 464.268 18.9729C468.232 18.9736 472.196 18.9718 476.159 18.9703C477.416 19.0218 478.537 19.39 479.493 20.2555C480.194 20.8903 480.727 21.6098 481.002 22.5725C481.023 22.7179 481.044 22.8054 481.066 22.893C481.066 22.893 481.077 22.9245 481.076 22.9779C481.077 27.4188 481.078 31.8063 481.079 36.1937C481.079 36.1937 481.077 36.228 481.055 36.2683C481.023 36.4248 481.014 36.541 481.004 36.6572C481.004 36.6572 481.001 36.6885 480.982 36.7158C480.946 36.7627 480.934 36.7846 480.926 36.8087C480.692 37.2561 480.505 37.7364 480.216 38.1447C479.438 39.2432 478.323 39.8479 477.035 40.1581C476.878 40.1961 476.705 40.1731 476.469 40.1776C472.387 40.1771 468.374 40.1764 464.362 40.1813C464.216 40.1815 464.071 40.2366 463.925 40.266C463.925 40.266 463.924 40.2986 463.9 40.3405C463.866 40.4708 463.848 40.5592 463.848 40.6476C463.848 44.6154 463.85 48.5832 463.851 52.551C463.835 53.9486 463.262 55.1097 462.318 56.1061C462.12 56.3159 461.905 56.5289 461.657 56.6684C461.419 56.8024 461.128 56.9134 460.86 56.9142C455.837 56.9284 450.813 56.9142 445.789 56.9399C445.262 56.9426 444.864 56.7702 444.501 56.4607C443.218 55.3642 442.533 53.9847 442.536 52.2755C442.543 48.3208 442.538 44.3661 442.526 40.3589C442.492 40.2897 442.47 40.2731 442.448 40.2565C442.448 40.2565 442.416 40.2548 442.373 40.2322C442.243 40.199 442.155 40.179 442.067 40.179C437.989 40.1782 433.912 40.1792 429.835 40.18C428.789 40.1274 427.875 39.7225 427.085 39.0659C426.174 38.309 425.524 37.3658 425.27 36.1862C425.221 35.9554 425.191 35.7203 425.152 35.4183C425.151 31.5024 425.15 27.6555 425.149 23.8086ZM445.923 38.0094C445.923 42.6999 445.921 47.3904 445.929 52.0808C445.93 52.2865 446.017 52.4919 446.076 52.7538C446.343 53.4022 446.764 53.8915 447.517 54.1272C447.593 54.1372 447.668 54.156 447.744 54.1561C451.384 54.1577 455.024 54.1582 458.665 54.1552C458.776 54.1551 458.887 54.1157 459.05 54.0696C459.724 53.8353 460.174 53.3854 460.417 52.6476C460.431 52.5475 460.459 52.4474 460.459 52.3473C460.46 47.7258 460.458 43.1042 460.461 38.4172C460.466 37.6341 460.979 36.9852 461.751 36.8736C462.556 36.8482 463.361 36.8024 464.166 36.8008C468.076 36.7932 471.987 36.7981 475.897 36.7946C476.059 36.7945 476.221 36.7544 476.435 36.7072C477.117 36.4811 477.542 36.0063 477.804 35.2866C477.818 35.1869 477.846 35.0872 477.846 34.9876C477.848 31.4615 477.848 27.9353 477.843 24.4092C477.842 24.2889 477.79 24.1687 477.709 24.0185C477.68 23.8856 477.662 23.749 477.619 23.6205C477.406 22.9774 476.903 22.6462 476.252 22.3869C476.138 22.3764 476.024 22.3567 475.91 22.3567C471.192 22.3557 466.474 22.3564 461.7 22.3542C461.049 22.1483 460.562 21.7857 460.462 20.9847C460.462 16.3917 460.462 11.7986 460.459 7.20551C460.459 7.05649 460.418 6.9075 460.384 6.7295C460.384 6.7295 460.384 6.69824 460.387 6.64212C460.365 6.55477 460.343 6.46742 460.308 6.32381C460.058 5.71337 459.608 5.31259 458.948 5.04061C458.823 5.02502 458.698 4.99589 458.572 4.9958C455.003 4.9933 451.434 4.99279 447.865 4.99724C447.732 4.99741 447.598 5.05041 447.438 5.13022C446.7 5.28219 446.307 5.79107 446.026 6.49884C445.992 6.65814 445.928 6.81742 445.928 6.97676C445.923 11.7232 445.925 16.4697 445.925 21.2719C445.673 21.849 445.296 22.2763 444.555 22.355C439.901 22.355 435.248 22.3542 430.595 22.3589C430.423 22.359 430.251 22.4129 430.052 22.4921C429.262 22.694 428.726 23.3012 428.645 24.0992C428.634 24.1998 428.613 24.3004 428.613 24.4011C428.611 27.8471 428.611 31.2932 428.614 34.7392C428.615 34.8618 428.657 34.9844 428.692 35.1691C428.723 35.3135 428.735 35.4654 428.788 35.6011C429.011 36.1686 429.477 36.4843 430.056 36.7658C430.157 36.7763 430.258 36.7955 430.359 36.796C435.166 36.8222 439.973 36.8467 444.837 36.8736C445.33 37.0055 445.68 37.2951 445.864 37.8201C445.876 37.8435 445.892 37.8625 445.924 37.9054C445.924 37.9054 445.926 37.9355 445.923 38.0094Z" fill="#50D8BE"/>
<path d="M481.108 36.1754C481.078 31.8061 481.077 27.4186 481.077 22.9944C481.104 23.0485 481.151 23.1395 481.151 23.2305C481.154 27.5016 481.153 31.7727 481.152 36.0439C481.152 36.0817 481.142 36.1195 481.108 36.1754Z" fill="#7FE0CE"/>
<path d="M463.961 40.2607C464.071 40.2364 464.217 40.1813 464.362 40.1811C468.375 40.1762 472.387 40.1769 476.436 40.1782C476.344 40.205 476.215 40.2519 476.086 40.252C472.056 40.256 468.026 40.2554 463.961 40.2607Z" fill="#6EDDC8"/>
<path d="M429.853 40.2091C433.912 40.1791 437.989 40.1781 442.066 40.1789C442.155 40.1789 442.243 40.1988 442.358 40.2262C439.326 40.2467 436.267 40.2522 433.209 40.2533C432.096 40.2537 430.983 40.2437 429.853 40.2091Z" fill="#6EDDC8"/>
<path d="M463.917 18.7897C463.89 18.69 463.849 18.554 463.849 18.418C463.846 14.4777 463.848 10.5373 463.85 6.56079C463.875 6.64099 463.92 6.75738 463.92 6.8738C463.924 10.8337 463.923 14.7936 463.917 18.7897Z" fill="#8BE3D2"/>
<path d="M476.142 18.9414C472.196 18.9718 468.232 18.9736 464.268 18.9729C464.168 18.9728 464.069 18.9443 463.946 18.9064C464.806 18.8885 465.688 18.8969 466.57 18.8974C469.615 18.8992 472.659 18.8979 475.704 18.8987C475.844 18.8988 475.985 18.9077 476.142 18.9414Z" fill="#85E3D1"/>
<path d="M463.88 52.5336C463.85 48.583 463.848 44.6152 463.848 40.6474C463.848 40.559 463.866 40.4706 463.894 40.3555C463.916 43.4078 463.921 46.4869 463.922 49.5661C463.923 50.5495 463.914 51.533 463.88 52.5336Z" fill="#8BE3D2"/>
<path d="M459.299 1.58112C455.258 1.61136 451.2 1.61238 447.104 1.61191C447.159 1.58544 447.249 1.53871 447.34 1.53863C451.283 1.53512 455.226 1.53569 459.169 1.53651C459.206 1.53652 459.244 1.54656 459.299 1.58112Z" fill="#73DFCA"/>
<path d="M442.427 18.894C442.33 18.9189 442.197 18.971 442.063 18.9712C438.167 18.975 434.27 18.9735 430.338 18.9715C430.431 18.9461 430.56 18.9011 430.689 18.901C434.59 18.8969 438.491 18.8973 442.427 18.894Z" fill="#85E3D1"/>
<path d="M425.12 23.8257C425.15 27.6553 425.151 31.5022 425.151 35.3856C425.125 35.3312 425.08 35.2403 425.08 35.1495C425.076 31.4185 425.077 27.6876 425.078 23.9566C425.078 23.9187 425.087 23.8808 425.12 23.8257Z" fill="#89E3D2"/>
<path d="M481.031 36.6417C481.014 36.5408 481.024 36.4246 481.05 36.2844C481.063 36.3824 481.06 36.5044 481.031 36.6417Z" fill="#5FDAC3"/>
<path d="M481.071 22.8639C481.044 22.8054 481.023 22.7179 481.002 22.6023C481.027 22.6611 481.052 22.7479 481.071 22.8639Z" fill="#5FDAC3"/>
<path d="M480.946 36.8014C480.934 36.7845 480.946 36.7626 480.976 36.7305C480.983 36.7434 480.975 36.7688 480.946 36.8014Z" fill="#5FDAC3"/>
<path d="M442.456 40.2763C442.469 40.273 442.491 40.2896 442.524 40.3234C442.512 40.3257 442.488 40.311 442.456 40.2763Z" fill="#6EDDC8"/>
<path d="M442.514 18.8213C442.518 18.8355 442.501 18.8559 442.469 18.8877C442.466 18.8752 442.48 18.8513 442.514 18.8213Z" fill="#85E3D1"/>
<path d="M430.029 36.7494C430.923 36.729 431.844 36.7216 432.765 36.7212C436.615 36.7193 440.465 36.7186 444.316 36.7232C444.461 36.7234 444.605 36.7837 444.765 36.8436C439.973 36.8466 435.166 36.8221 430.359 36.7959C430.258 36.7954 430.157 36.7762 430.029 36.7494Z" fill="#67DCC6"/>
<path d="M445.924 37.9724C445.95 38.0647 445.997 38.194 445.997 38.3233C446.001 42.5125 445.997 46.7017 446.003 50.8908C446.004 51.4711 446.05 52.0513 446.069 52.6645C446.017 52.4919 445.929 52.2864 445.929 52.0808C445.921 47.3904 445.923 42.6999 445.924 37.9724Z" fill="#66DCC5"/>
<path d="M461.717 36.8725C461.856 36.8209 462.029 36.7265 462.202 36.7262C466.905 36.7191 471.609 36.7216 476.348 36.7278C476.221 36.7544 476.059 36.7945 475.896 36.7946C471.986 36.7981 468.076 36.7932 464.166 36.8008C463.361 36.8024 462.556 36.8482 461.717 36.8725Z" fill="#67DCC6"/>
<path d="M446.045 6.47681C446.043 11.1459 446.022 15.837 445.999 20.5282C445.998 20.7452 445.989 20.9623 445.955 21.1977C445.925 16.4697 445.923 11.7232 445.928 6.97676C445.928 6.81741 445.992 6.65813 446.045 6.47681Z" fill="#66DCC5"/>
<path d="M476.279 22.4032C474.796 22.4236 473.285 22.4305 471.775 22.4313C468.575 22.4332 465.375 22.4321 462.175 22.4312C462.047 22.4312 461.92 22.4208 461.774 22.3861C466.474 22.3564 471.192 22.3557 475.909 22.3567C476.024 22.3567 476.138 22.3764 476.279 22.4032Z" fill="#73DFCA"/>
<path d="M444.592 22.3559C444.486 22.3818 444.344 22.4286 444.202 22.4287C439.518 22.4327 434.835 22.4322 430.115 22.437C430.251 22.4129 430.423 22.359 430.595 22.3589C435.248 22.3542 439.902 22.355 444.592 22.3559Z" fill="#73DFCA"/>
<path d="M460.46 21.0211C460.434 20.9543 460.387 20.851 460.387 20.7477C460.384 16.1086 460.385 11.4695 460.391 6.79443C460.418 6.90741 460.458 7.0564 460.459 7.20541C460.462 11.7985 460.461 16.3916 460.46 21.0211Z" fill="#78DFCB"/>
<path d="M460.397 52.6718C460.379 48.6081 460.382 44.5199 460.386 40.4318C460.386 39.7934 460.394 39.155 460.428 38.4995C460.458 43.104 460.46 47.7256 460.46 52.3471C460.46 52.4472 460.432 52.5473 460.397 52.6718Z" fill="#8DE4D3"/>
<path d="M447.49 54.1107C449.917 54.0903 452.371 54.085 454.824 54.0824C456.192 54.0809 457.559 54.0839 458.963 54.0896C458.887 54.1156 458.776 54.155 458.665 54.155C455.025 54.1581 451.385 54.1575 447.744 54.1559C447.669 54.1559 447.593 54.1371 447.49 54.1107Z" fill="#8BE3D2"/>
<path d="M458.973 5.06063C456.698 5.07724 454.398 5.07307 452.098 5.07065C450.577 5.06904 449.056 5.06993 447.5 5.07424C447.598 5.0504 447.732 4.9974 447.865 4.99724C451.434 4.99279 455.003 4.99329 458.572 4.9958C458.698 4.99589 458.823 5.02501 458.973 5.06063Z" fill="#86E2D1"/>
<path d="M477.782 35.3104C477.764 31.5961 477.766 27.8578 477.765 24.084C477.789 24.1686 477.842 24.2888 477.842 24.4091C477.847 27.9352 477.847 31.4613 477.846 34.9875C477.846 35.0871 477.818 35.1868 477.782 35.3104Z" fill="#6EDDC8"/>
<path d="M428.662 24.0725C428.684 26.2667 428.689 28.4875 428.692 30.7082C428.693 32.1506 428.691 33.593 428.685 35.0711C428.657 34.9843 428.614 34.8617 428.614 34.7391C428.61 31.2931 428.611 27.847 428.613 24.401C428.613 24.3003 428.634 24.1997 428.662 24.0725Z" fill="#86E2D1"/>
<path d="M460.385 6.67015C460.359 6.61142 460.335 6.52463 460.315 6.40894C460.343 6.46739 460.365 6.55474 460.385 6.67015Z" fill="#78DFCB"/>
<path d="M445.856 37.8026C445.872 37.8012 445.896 37.8172 445.917 37.8552C445.892 37.8625 445.876 37.8434 445.856 37.8026Z" fill="#66DCC5"/>
<path d="M33.9524 50.3125H26.4865C26.3501 49.3466 26.0717 48.4886 25.6513 47.7386C25.2308 46.9773 24.6911 46.3295 24.032 45.7955C23.3729 45.2614 22.6115 44.8523 21.7479 44.5682C20.8956 44.2841 19.9695 44.142 18.9695 44.142C17.1626 44.142 15.5888 44.5909 14.2479 45.4886C12.907 46.375 11.8672 47.6705 11.1286 49.375C10.3899 51.0682 10.0206 53.125 10.0206 55.5455C10.0206 58.0341 10.3899 60.125 11.1286 61.8182C11.8786 63.5114 12.924 64.7898 14.2649 65.6534C15.6058 66.517 17.157 66.9489 18.9183 66.9489C19.907 66.9489 20.8217 66.8182 21.6626 66.5568C22.5149 66.2955 23.2706 65.9148 23.9297 65.4148C24.5888 64.9034 25.1342 64.2841 25.5661 63.5568C26.0092 62.8295 26.3161 62 26.4865 61.0682L33.9524 61.1023C33.7592 62.7045 33.2763 64.25 32.5036 65.7386C31.7422 67.2159 30.7138 68.5398 29.4183 69.7102C28.1342 70.8693 26.6001 71.7898 24.8161 72.4716C23.0433 73.142 21.0376 73.4773 18.799 73.4773C15.6854 73.4773 12.9013 72.7727 10.4467 71.3636C8.00355 69.9545 6.07173 67.9148 4.65128 65.2443C3.24219 62.5739 2.53764 59.3409 2.53764 55.5455C2.53764 51.7386 3.25355 48.5 4.68537 45.8295C6.11719 43.1591 8.06037 41.125 10.5149 39.7273C12.9695 38.3182 15.7308 37.6136 18.799 37.6136C20.8217 37.6136 22.6967 37.8977 24.424 38.4659C26.1626 39.0341 27.7024 39.8636 29.0433 40.9545C30.3842 42.0341 31.4751 43.358 32.3161 44.9261C33.1683 46.4943 33.7138 48.2898 33.9524 50.3125ZM50.9382 73.5114C48.2905 73.5114 46.0007 72.9489 44.0689 71.8239C42.1484 70.6875 40.6655 69.108 39.62 67.0852C38.5746 65.0511 38.0518 62.6932 38.0518 60.0114C38.0518 57.3068 38.5746 54.9432 39.62 52.9205C40.6655 50.8864 42.1484 49.3068 44.0689 48.1818C46.0007 47.0455 48.2905 46.4773 50.9382 46.4773C53.5859 46.4773 55.87 47.0455 57.7905 48.1818C59.7223 49.3068 61.2109 50.8864 62.2564 52.9205C63.3018 54.9432 63.8246 57.3068 63.8246 60.0114C63.8246 62.6932 63.3018 65.0511 62.2564 67.0852C61.2109 69.108 59.7223 70.6875 57.7905 71.8239C55.87 72.9489 53.5859 73.5114 50.9382 73.5114ZM50.9723 67.8864C52.1768 67.8864 53.1825 67.5455 53.9893 66.8636C54.7962 66.1705 55.4041 65.2273 55.8132 64.0341C56.2337 62.8409 56.4439 61.483 56.4439 59.9602C56.4439 58.4375 56.2337 57.0795 55.8132 55.8864C55.4041 54.6932 54.7962 53.75 53.9893 53.0568C53.1825 52.3636 52.1768 52.017 50.9723 52.017C49.7564 52.017 48.7337 52.3636 47.9041 53.0568C47.0859 53.75 46.4666 54.6932 46.0462 55.8864C45.6371 57.0795 45.4325 58.4375 45.4325 59.9602C45.4325 61.483 45.6371 62.8409 46.0462 64.0341C46.4666 65.2273 47.0859 66.1705 47.9041 66.8636C48.7337 67.5455 49.7564 67.8864 50.9723 67.8864ZM75.8075 57.8636V73H68.5462V46.8182H75.4666V51.4375H75.7734C76.353 49.9148 77.3246 48.7102 78.6882 47.8239C80.0518 46.9261 81.7053 46.4773 83.6484 46.4773C85.4666 46.4773 87.0518 46.875 88.4041 47.6705C89.7564 48.4659 90.8075 49.6023 91.5575 51.0795C92.3075 52.5455 92.6825 54.2955 92.6825 56.3295V73H85.4212V57.625C85.4325 56.0227 85.0234 54.7727 84.1939 53.875C83.3643 52.9659 82.2223 52.5114 80.7678 52.5114C79.7905 52.5114 78.9268 52.7216 78.1768 53.142C77.4382 53.5625 76.8587 54.1761 76.4382 54.983C76.0291 55.7784 75.8189 56.7386 75.8075 57.8636ZM105.667 57.8636V73H98.4055V46.8182H105.326V51.4375H105.633C106.212 49.9148 107.184 48.7102 108.548 47.8239C109.911 46.9261 111.565 46.4773 113.508 46.4773C115.326 46.4773 116.911 46.875 118.263 47.6705C119.616 48.4659 120.667 49.6023 121.417 51.0795C122.167 52.5455 122.542 54.2955 122.542 56.3295V73H115.281V57.625C115.292 56.0227 114.883 54.7727 114.053 53.875C113.224 52.9659 112.082 52.5114 110.627 52.5114C109.65 52.5114 108.786 52.7216 108.036 53.142C107.298 53.5625 106.718 54.1761 106.298 54.983C105.888 55.7784 105.678 56.7386 105.667 57.8636ZM140.197 73.5114C137.504 73.5114 135.185 72.9659 133.242 71.875C131.31 70.7727 129.822 69.2159 128.776 67.2045C127.731 65.1818 127.208 62.7898 127.208 60.0284C127.208 57.3352 127.731 54.9716 128.776 52.9375C129.822 50.9034 131.293 49.3182 133.191 48.1818C135.1 47.0455 137.339 46.4773 139.907 46.4773C141.634 46.4773 143.242 46.7557 144.731 47.3125C146.231 47.858 147.538 48.6818 148.651 49.7841C149.776 50.8864 150.651 52.2727 151.276 53.9432C151.901 55.6023 152.214 57.5455 152.214 59.7727V61.767H130.106V57.267H145.379C145.379 56.2216 145.151 55.2955 144.697 54.4886C144.242 53.6818 143.612 53.0511 142.805 52.5966C142.009 52.1307 141.083 51.8977 140.026 51.8977C138.924 51.8977 137.947 52.1534 137.094 52.6648C136.254 53.1648 135.594 53.8409 135.117 54.6932C134.64 55.5341 134.396 56.4716 134.384 57.5057V61.7841C134.384 63.0795 134.623 64.1989 135.1 65.142C135.589 66.0852 136.276 66.8125 137.163 67.3239C138.049 67.8352 139.1 68.0909 140.316 68.0909C141.123 68.0909 141.862 67.9773 142.532 67.75C143.202 67.5227 143.776 67.1818 144.254 66.7273C144.731 66.2727 145.094 65.7159 145.344 65.0568L152.06 65.5C151.719 67.1136 151.021 68.5227 149.964 69.7273C148.918 70.9205 147.566 71.8523 145.907 72.5227C144.259 73.1818 142.356 73.5114 140.197 73.5114ZM168.782 73.5114C166.1 73.5114 163.793 72.9432 161.862 71.8068C159.941 70.6591 158.464 69.0682 157.43 67.0341C156.407 65 155.896 62.6591 155.896 60.0114C155.896 57.3295 156.413 54.9773 157.447 52.9545C158.492 50.9205 159.975 49.3352 161.896 48.1989C163.816 47.0511 166.1 46.4773 168.748 46.4773C171.032 46.4773 173.032 46.892 174.748 47.7216C176.464 48.5511 177.822 49.7159 178.822 51.2159C179.822 52.7159 180.373 54.4773 180.475 56.5H173.623C173.43 55.1932 172.918 54.142 172.089 53.3466C171.271 52.5398 170.197 52.1364 168.867 52.1364C167.742 52.1364 166.759 52.4432 165.918 53.0568C165.089 53.6591 164.441 54.5398 163.975 55.6989C163.509 56.858 163.276 58.2614 163.276 59.9091C163.276 61.5795 163.504 63 163.958 64.1705C164.424 65.3409 165.077 66.233 165.918 66.8466C166.759 67.4602 167.742 67.767 168.867 67.767C169.697 67.767 170.441 67.5966 171.1 67.2557C171.771 66.9148 172.322 66.4205 172.754 65.7727C173.197 65.1136 173.487 64.3239 173.623 63.4034H180.475C180.362 65.4034 179.816 67.1648 178.839 68.6875C177.873 70.1989 176.538 71.3807 174.833 72.233C173.129 73.0852 171.112 73.5114 168.782 73.5114ZM199.05 46.8182V52.2727H183.283V46.8182H199.05ZM186.863 40.5455H194.124V64.9545C194.124 65.625 194.227 66.1477 194.431 66.5227C194.636 66.8864 194.92 67.142 195.283 67.2898C195.658 67.4375 196.09 67.5114 196.579 67.5114C196.92 67.5114 197.261 67.483 197.602 67.4261C197.942 67.358 198.204 67.3068 198.386 67.2727L199.528 72.6761C199.164 72.7898 198.653 72.9205 197.994 73.0682C197.335 73.2273 196.533 73.3239 195.59 73.358C193.84 73.4261 192.306 73.1932 190.988 72.6591C189.681 72.125 188.664 71.2955 187.937 70.1705C187.21 69.0455 186.852 67.625 186.863 65.9091V40.5455ZM204.479 73V38.0909H218.252C220.9 38.0909 223.156 38.5966 225.019 39.608C226.883 40.608 228.303 42 229.281 43.7841C230.269 45.5568 230.763 47.6023 230.763 49.9205C230.763 52.2386 230.263 54.2841 229.263 56.0568C228.263 57.8295 226.815 59.2102 224.917 60.1989C223.031 61.1875 220.746 61.6818 218.065 61.6818H209.286V55.767H216.871C218.292 55.767 219.462 55.5227 220.383 55.0341C221.315 54.5341 222.008 53.8466 222.462 52.9716C222.928 52.0852 223.161 51.0682 223.161 49.9205C223.161 48.7614 222.928 47.75 222.462 46.8864C222.008 46.0114 221.315 45.3352 220.383 44.858C219.451 44.3693 218.269 44.125 216.837 44.125H211.86V73H204.479ZM242.683 57.8636V73H235.421V38.0909H242.478V51.4375H242.785C243.376 49.892 244.33 48.6818 245.648 47.8068C246.967 46.9205 248.62 46.4773 250.609 46.4773C252.427 46.4773 254.012 46.875 255.364 47.6705C256.728 48.4545 257.785 49.5852 258.535 51.0625C259.296 52.5284 259.671 54.2841 259.66 56.3295V73H252.398V57.625C252.41 56.0114 252.001 54.7557 251.171 53.858C250.353 52.9602 249.205 52.5114 247.728 52.5114C246.739 52.5114 245.864 52.7216 245.103 53.142C244.353 53.5625 243.762 54.1761 243.33 54.983C242.91 55.7784 242.694 56.7386 242.683 57.8636ZM272.84 73.4943C271.17 73.4943 269.681 73.2045 268.374 72.625C267.067 72.0341 266.033 71.1648 265.272 70.017C264.522 68.858 264.147 67.4148 264.147 65.6875C264.147 64.233 264.414 63.0114 264.948 62.0227C265.482 61.0341 266.21 60.2386 267.13 59.6364C268.05 59.0341 269.096 58.5795 270.266 58.2727C271.448 57.9659 272.687 57.75 273.982 57.625C275.505 57.4659 276.732 57.3182 277.664 57.1818C278.596 57.0341 279.272 56.8182 279.692 56.5341C280.113 56.25 280.323 55.8295 280.323 55.2727V55.1705C280.323 54.0909 279.982 53.2557 279.3 52.6648C278.63 52.0739 277.675 51.7784 276.437 51.7784C275.13 51.7784 274.09 52.0682 273.317 52.6477C272.545 53.2159 272.033 53.9318 271.783 54.7955L265.067 54.25C265.408 52.6591 266.079 51.2841 267.079 50.125C268.079 48.9545 269.369 48.0568 270.948 47.4318C272.539 46.7955 274.38 46.4773 276.471 46.4773C277.925 46.4773 279.317 46.6477 280.647 46.9886C281.988 47.3295 283.175 47.858 284.21 48.5739C285.255 49.2898 286.079 50.2102 286.681 51.3352C287.283 52.4489 287.585 53.7841 287.585 55.3409V73H280.698V69.3693H280.494C280.073 70.1875 279.511 70.9091 278.806 71.5341C278.102 72.1477 277.255 72.6307 276.266 72.983C275.278 73.3239 274.136 73.4943 272.84 73.4943ZM274.92 68.483C275.988 68.483 276.931 68.2727 277.749 67.8523C278.567 67.4205 279.21 66.8409 279.675 66.1136C280.141 65.3864 280.374 64.5625 280.374 63.642V60.8636C280.147 61.0114 279.835 61.1477 279.437 61.2727C279.05 61.3864 278.613 61.4943 278.124 61.5966C277.636 61.6875 277.147 61.7727 276.658 61.8523C276.17 61.9205 275.727 61.983 275.329 62.0398C274.477 62.1648 273.732 62.3636 273.096 62.6364C272.46 62.9091 271.965 63.2784 271.613 63.7443C271.261 64.1989 271.085 64.767 271.085 65.4489C271.085 66.4375 271.442 67.1932 272.158 67.7159C272.886 68.2273 273.806 68.483 274.92 68.483ZM293.218 73V46.8182H300.258V51.3864H300.531C301.008 49.7614 301.809 48.5341 302.934 47.7045C304.059 46.8636 305.354 46.4432 306.82 46.4432C307.184 46.4432 307.576 46.4659 307.996 46.5114C308.417 46.5568 308.786 46.6193 309.104 46.6989V53.142C308.763 53.0398 308.292 52.9489 307.69 52.8693C307.087 52.7898 306.536 52.75 306.036 52.75C304.968 52.75 304.013 52.983 303.173 53.4489C302.343 53.9034 301.684 54.5398 301.195 55.358C300.718 56.1761 300.479 57.1193 300.479 58.1875V73H293.218ZM312.859 73V46.8182H319.779V51.4375H320.086C320.631 49.9034 321.54 48.6932 322.813 47.8068C324.086 46.9205 325.609 46.4773 327.381 46.4773C329.177 46.4773 330.705 46.9261 331.967 47.8239C333.228 48.7102 334.069 49.9148 334.489 51.4375H334.762C335.296 49.9375 336.262 48.7386 337.66 47.8409C339.069 46.9318 340.734 46.4773 342.654 46.4773C345.097 46.4773 347.08 47.2557 348.603 48.8125C350.137 50.358 350.904 52.5511 350.904 55.392V73H343.66V56.8239C343.66 55.3693 343.273 54.2784 342.501 53.5511C341.728 52.8239 340.762 52.4602 339.603 52.4602C338.285 52.4602 337.256 52.8807 336.518 53.7216C335.779 54.5511 335.41 55.6477 335.41 57.0114V73H328.37V56.6705C328.37 55.3864 328.001 54.3636 327.262 53.6023C326.535 52.8409 325.575 52.4602 324.381 52.4602C323.575 52.4602 322.847 52.6648 322.2 53.0739C321.563 53.4716 321.058 54.0341 320.683 54.7614C320.308 55.4773 320.12 56.3182 320.12 57.2841V73H312.859ZM364.106 73.4943C362.435 73.4943 360.947 73.2045 359.64 72.625C358.333 72.0341 357.299 71.1648 356.538 70.017C355.788 68.858 355.413 67.4148 355.413 65.6875C355.413 64.233 355.68 63.0114 356.214 62.0227C356.748 61.0341 357.475 60.2386 358.396 59.6364C359.316 59.0341 360.362 58.5795 361.532 58.2727C362.714 57.9659 363.952 57.75 365.248 57.625C366.771 57.4659 367.998 57.3182 368.93 57.1818C369.862 57.0341 370.538 56.8182 370.958 56.5341C371.379 56.25 371.589 55.8295 371.589 55.2727V55.1705C371.589 54.0909 371.248 53.2557 370.566 52.6648C369.896 52.0739 368.941 51.7784 367.702 51.7784C366.396 51.7784 365.356 52.0682 364.583 52.6477C363.81 53.2159 363.299 53.9318 363.049 54.7955L356.333 54.25C356.674 52.6591 357.344 51.2841 358.344 50.125C359.344 48.9545 360.634 48.0568 362.214 47.4318C363.805 46.7955 365.646 46.4773 367.737 46.4773C369.191 46.4773 370.583 46.6477 371.913 46.9886C373.254 47.3295 374.441 47.858 375.475 48.5739C376.521 49.2898 377.344 50.2102 377.947 51.3352C378.549 52.4489 378.85 53.7841 378.85 55.3409V73H371.964V69.3693H371.759C371.339 70.1875 370.776 70.9091 370.072 71.5341C369.367 72.1477 368.521 72.6307 367.532 72.983C366.543 73.3239 365.401 73.4943 364.106 73.4943ZM366.185 68.483C367.254 68.483 368.197 68.2727 369.015 67.8523C369.833 67.4205 370.475 66.8409 370.941 66.1136C371.407 65.3864 371.64 64.5625 371.64 63.642V60.8636C371.413 61.0114 371.1 61.1477 370.702 61.2727C370.316 61.3864 369.879 61.4943 369.39 61.5966C368.901 61.6875 368.413 61.7727 367.924 61.8523C367.435 61.9205 366.992 61.983 366.594 62.0398C365.742 62.1648 364.998 62.3636 364.362 62.6364C363.725 62.9091 363.231 63.2784 362.879 63.7443C362.526 64.1989 362.35 64.767 362.35 65.4489C362.35 66.4375 362.708 67.1932 363.424 67.7159C364.151 68.2273 365.072 68.483 366.185 68.483ZM396.313 73.5114C393.631 73.5114 391.325 72.9432 389.393 71.8068C387.472 70.6591 385.995 69.0682 384.961 67.0341C383.938 65 383.427 62.6591 383.427 60.0114C383.427 57.3295 383.944 54.9773 384.978 52.9545C386.023 50.9205 387.506 49.3352 389.427 48.1989C391.347 47.0511 393.631 46.4773 396.279 46.4773C398.563 46.4773 400.563 46.892 402.279 47.7216C403.995 48.5511 405.353 49.7159 406.353 51.2159C407.353 52.7159 407.904 54.4773 408.006 56.5H401.154C400.961 55.1932 400.45 54.142 399.62 53.3466C398.802 52.5398 397.728 52.1364 396.398 52.1364C395.273 52.1364 394.29 52.4432 393.45 53.0568C392.62 53.6591 391.972 54.5398 391.506 55.6989C391.04 56.858 390.808 58.2614 390.808 59.9091C390.808 61.5795 391.035 63 391.489 64.1705C391.955 65.3409 392.609 66.233 393.45 66.8466C394.29 67.4602 395.273 67.767 396.398 67.767C397.228 67.767 397.972 67.5966 398.631 67.2557C399.302 66.9148 399.853 66.4205 400.285 65.7727C400.728 65.1136 401.018 64.3239 401.154 63.4034H408.006C407.893 65.4034 407.347 67.1648 406.37 68.6875C405.404 70.1989 404.069 71.3807 402.364 72.233C400.66 73.0852 398.643 73.5114 396.313 73.5114ZM417.138 82.8182C416.218 82.8182 415.354 82.7443 414.548 82.5966C413.752 82.4602 413.093 82.2841 412.57 82.0682L414.207 76.6477C415.059 76.9091 415.826 77.0511 416.508 77.0739C417.201 77.0966 417.798 76.9375 418.298 76.5966C418.809 76.2557 419.224 75.6761 419.542 74.858L419.968 73.75L410.576 46.8182H418.212L423.633 66.0455H423.906L429.377 46.8182H437.065L426.888 75.8295C426.4 77.2386 425.735 78.4659 424.894 79.5114C424.065 80.5682 423.013 81.3807 421.741 81.9489C420.468 82.5284 418.934 82.8182 417.138 82.8182Z" fill="#00709F"/>
</svg>
