<svg width="30" height="30" viewBox="0 0 30 30" fill="none" xmlns="http://www.w3.org/2000/svg">
<path d="M27.5 4H2.5C1.1375 4.05 0.05 5.1375 0 6.5V24C0.05 25.3625 1.1375 26.45 2.5 26.5H27.5C28.8625 26.45 29.95 25.3625 30 24V6.5C29.977 5.84428 29.7062 5.22168 29.2423 4.75773C28.7783 4.29378 28.1557 4.02301 27.5 4ZM27.5 24H2.5V6.5H27.5V24ZM17.5 21.5V19.9375C17.5 17.8625 13.325 16.8125 11.25 16.8125C9.175 16.8125 5 17.8625 5 19.9375V21.5H17.5ZM11.25 9C10.4212 9 9.62634 9.32924 9.04029 9.91529C8.45424 10.5013 8.125 11.2962 8.125 12.125C8.125 12.5354 8.20583 12.9417 8.36288 13.3209C8.51992 13.7 8.75011 14.0445 9.04029 14.3347C9.62634 14.9208 10.4212 15.25 11.25 15.25C11.6604 15.25 12.0667 15.1692 12.4459 15.0121C12.825 14.8551 13.1695 14.6249 13.4597 14.3347C13.7499 14.0445 13.9801 13.7 14.1371 13.3209C14.2942 12.9417 14.375 12.5354 14.375 12.125C14.375 11.7146 14.2942 11.3083 14.1371 10.9291C13.9801 10.55 13.7499 10.2055 13.4597 9.91529C13.1695 9.62511 12.825 9.39492 12.4459 9.23788C12.0667 9.08083 11.6604 9 11.25 9ZM17.5 9V10.25H25V9H17.5ZM17.5 11.5V12.75H25V11.5H17.5ZM17.5 14V15.25H22.5V14H17.5Z" fill="#686868"/>
</svg>
