<svg width="111" height="44" viewBox="0 0 111 44" fill="none" xmlns="http://www.w3.org/2000/svg">
<path d="M8.65102 16.24C7.57102 16.24 6.56435 16.0667 5.63102 15.72C4.71102 15.36 3.91102 14.8533 3.23102 14.2C2.55102 13.5467 2.01768 12.78 1.63102 11.9C1.25768 11.02 1.07102 10.0533 1.07102 9C1.07102 7.94667 1.25768 6.98 1.63102 6.1C2.01768 5.22 2.55102 4.45333 3.23102 3.8C3.92435 3.14667 4.73102 2.64667 5.65102 2.3C6.57102 1.94 7.57768 1.76 8.67102 1.76C9.88435 1.76 10.9777 1.97333 11.951 2.4C12.9377 2.81333 13.7643 3.42667 14.431 4.24L12.351 6.16C11.871 5.61333 11.3377 5.20667 10.751 4.94C10.1643 4.66 9.52435 4.52 8.83102 4.52C8.17768 4.52 7.57768 4.62667 7.03102 4.84C6.48435 5.05333 6.01102 5.36 5.61102 5.76C5.21102 6.16 4.89768 6.63333 4.67102 7.18C4.45768 7.72667 4.35102 8.33333 4.35102 9C4.35102 9.66667 4.45768 10.2733 4.67102 10.82C4.89768 11.3667 5.21102 11.84 5.61102 12.24C6.01102 12.64 6.48435 12.9467 7.03102 13.16C7.57768 13.3733 8.17768 13.48 8.83102 13.48C9.52435 13.48 10.1643 13.3467 10.751 13.08C11.3377 12.8 11.871 12.38 12.351 11.82L14.431 13.74C13.7643 14.5533 12.9377 15.1733 11.951 15.6C10.9777 16.0267 9.87768 16.24 8.65102 16.24ZM21.6479 16.16C20.5012 16.16 19.4812 15.92 18.5879 15.44C17.7079 14.96 17.0079 14.3067 16.4879 13.48C15.9812 12.64 15.7279 11.6867 15.7279 10.62C15.7279 9.54 15.9812 8.58667 16.4879 7.76C17.0079 6.92 17.7079 6.26667 18.5879 5.8C19.4812 5.32 20.5012 5.08 21.6479 5.08C22.7812 5.08 23.7946 5.32 24.6879 5.8C25.5812 6.26667 26.2812 6.91333 26.7879 7.74C27.2946 8.56667 27.5479 9.52667 27.5479 10.62C27.5479 11.6867 27.2946 12.64 26.7879 13.48C26.2812 14.3067 25.5812 14.96 24.6879 15.44C23.7946 15.92 22.7812 16.16 21.6479 16.16ZM21.6479 13.6C22.1679 13.6 22.6346 13.48 23.0479 13.24C23.4612 13 23.7879 12.66 24.0279 12.22C24.2679 11.7667 24.3879 11.2333 24.3879 10.62C24.3879 9.99333 24.2679 9.46 24.0279 9.02C23.7879 8.58 23.4612 8.24 23.0479 8C22.6346 7.76 22.1679 7.64 21.6479 7.64C21.1279 7.64 20.6612 7.76 20.2479 8C19.8346 8.24 19.5012 8.58 19.2479 9.02C19.0079 9.46 18.8879 9.99333 18.8879 10.62C18.8879 11.2333 19.0079 11.7667 19.2479 12.22C19.5012 12.66 19.8346 13 20.2479 13.24C20.6612 13.48 21.1279 13.6 21.6479 13.6ZM36.6734 5.08C37.5267 5.08 38.2867 5.25333 38.9534 5.6C39.6334 5.93333 40.1667 6.45333 40.5534 7.16C40.94 7.85333 41.1334 8.74667 41.1334 9.84V16H38.0134V10.32C38.0134 9.45333 37.82 8.81333 37.4334 8.4C37.06 7.98667 36.5267 7.78 35.8334 7.78C35.34 7.78 34.8934 7.88667 34.4934 8.1C34.1067 8.3 33.8 8.61333 33.5734 9.04C33.36 9.46667 33.2534 10.0133 33.2534 10.68V16H30.1334V5.24H33.1134V8.22L32.5534 7.32C32.94 6.6 33.4934 6.04667 34.2134 5.66C34.9334 5.27333 35.7534 5.08 36.6734 5.08ZM51.0015 5.08C51.8548 5.08 52.6148 5.25333 53.2815 5.6C53.9615 5.93333 54.4948 6.45333 54.8815 7.16C55.2682 7.85333 55.4615 8.74667 55.4615 9.84V16H52.3415V10.32C52.3415 9.45333 52.1482 8.81333 51.7615 8.4C51.3882 7.98667 50.8548 7.78 50.1615 7.78C49.6682 7.78 49.2215 7.88667 48.8215 8.1C48.4348 8.3 48.1282 8.61333 47.9015 9.04C47.6882 9.46667 47.5815 10.0133 47.5815 10.68V16H44.4615V5.24H47.4415V8.22L46.8815 7.32C47.2682 6.6 47.8215 6.04667 48.5415 5.66C49.2615 5.27333 50.0815 5.08 51.0015 5.08ZM64.2077 16.16C62.9811 16.16 61.9011 15.92 60.9677 15.44C60.0477 14.96 59.3344 14.3067 58.8277 13.48C58.3211 12.64 58.0677 11.6867 58.0677 10.62C58.0677 9.54 58.3144 8.58667 58.8077 7.76C59.3144 6.92 60.0011 6.26667 60.8677 5.8C61.7344 5.32 62.7144 5.08 63.8077 5.08C64.8611 5.08 65.8077 5.30667 66.6477 5.76C67.5011 6.2 68.1744 6.84 68.6677 7.68C69.1611 8.50667 69.4077 9.5 69.4077 10.66C69.4077 10.78 69.4011 10.92 69.3877 11.08C69.3744 11.2267 69.3611 11.3667 69.3477 11.5H60.6077V9.68H67.7077L66.5077 10.22C66.5077 9.66 66.3944 9.17333 66.1677 8.76C65.9411 8.34667 65.6277 8.02667 65.2277 7.8C64.8277 7.56 64.3611 7.44 63.8277 7.44C63.2944 7.44 62.8211 7.56 62.4077 7.8C62.0077 8.02667 61.6944 8.35333 61.4677 8.78C61.2411 9.19333 61.1277 9.68667 61.1277 10.26V10.74C61.1277 11.3267 61.2544 11.8467 61.5077 12.3C61.7744 12.74 62.1411 13.08 62.6077 13.32C63.0877 13.5467 63.6477 13.66 64.2877 13.66C64.8611 13.66 65.3611 13.5733 65.7877 13.4C66.2277 13.2267 66.6277 12.9667 66.9877 12.62L68.6477 14.42C68.1544 14.98 67.5344 15.4133 66.7877 15.72C66.0411 16.0133 65.1811 16.16 64.2077 16.16ZM77.1849 16.16C76.0249 16.16 74.9916 15.9267 74.0849 15.46C73.1783 14.98 72.4649 14.32 71.9449 13.48C71.4383 12.64 71.1849 11.6867 71.1849 10.62C71.1849 9.54 71.4383 8.58667 71.9449 7.76C72.4649 6.92 73.1783 6.26667 74.0849 5.8C74.9916 5.32 76.0249 5.08 77.1849 5.08C78.3183 5.08 79.3049 5.32 80.1449 5.8C80.9849 6.26667 81.6049 6.94 82.0049 7.82L79.5849 9.12C79.3049 8.61333 78.9516 8.24 78.5249 8C78.1116 7.76 77.6583 7.64 77.1649 7.64C76.6316 7.64 76.1516 7.76 75.7249 8C75.2983 8.24 74.9583 8.58 74.7049 9.02C74.4649 9.46 74.3449 9.99333 74.3449 10.62C74.3449 11.2467 74.4649 11.78 74.7049 12.22C74.9583 12.66 75.2983 13 75.7249 13.24C76.1516 13.48 76.6316 13.6 77.1649 13.6C77.6583 13.6 78.1116 13.4867 78.5249 13.26C78.9516 13.02 79.3049 12.64 79.5849 12.12L82.0049 13.44C81.6049 14.3067 80.9849 14.98 80.1449 15.46C79.3049 15.9267 78.3183 16.16 77.1849 16.16ZM88.8576 16.16C87.5909 16.16 86.6042 15.84 85.8976 15.2C85.1909 14.5467 84.8376 13.58 84.8376 12.3V2.86H87.9576V12.26C87.9576 12.7133 88.0776 13.0667 88.3176 13.32C88.5576 13.56 88.8842 13.68 89.2976 13.68C89.7909 13.68 90.2109 13.5467 90.5576 13.28L91.3976 15.48C91.0776 15.7067 90.6909 15.88 90.2376 16C89.7976 16.1067 89.3376 16.16 88.8576 16.16ZM83.1776 7.88V5.48H90.6376V7.88H83.1776Z" fill="#00709F"/>
<path d="M1.71664 39V25H7.77664C9.02997 25 10.11 25.2067 11.0166 25.62C11.9233 26.02 12.6233 26.6 13.1166 27.36C13.61 28.12 13.8566 29.0267 13.8566 30.08C13.8566 31.12 13.61 32.02 13.1166 32.78C12.6233 33.54 11.9233 34.1267 11.0166 34.54C10.11 34.94 9.02997 35.14 7.77664 35.14H3.51664L4.95664 33.68V39H1.71664ZM4.95664 34.04L3.51664 32.5H7.59664C8.59664 32.5 9.34331 32.2867 9.83664 31.86C10.33 31.4333 10.5766 30.84 10.5766 30.08C10.5766 29.3067 10.33 28.7067 9.83664 28.28C9.34331 27.8533 8.59664 27.64 7.59664 27.64H3.51664L4.95664 26.1V34.04ZM23.1851 28.08C24.0384 28.08 24.7984 28.2533 25.4651 28.6C26.1451 28.9333 26.6784 29.4533 27.0651 30.16C27.4517 30.8533 27.6451 31.7467 27.6451 32.84V39H24.5251V33.32C24.5251 32.4533 24.3317 31.8133 23.9451 31.4C23.5717 30.9867 23.0384 30.78 22.3451 30.78C21.8517 30.78 21.4051 30.8867 21.0051 31.1C20.6184 31.3 20.3117 31.6133 20.0851 32.04C19.8717 32.4667 19.7651 33.0133 19.7651 33.68V39H16.6451V24.16H19.7651V31.22L19.0651 30.32C19.4517 29.6 20.0051 29.0467 20.7251 28.66C21.4451 28.2733 22.2651 28.08 23.1851 28.08ZM37.5732 39V36.9L37.3732 36.44V32.68C37.3732 32.0133 37.1665 31.4933 36.7532 31.12C36.3532 30.7467 35.7332 30.56 34.8932 30.56C34.3199 30.56 33.7532 30.6533 33.1932 30.84C32.6465 31.0133 32.1799 31.2533 31.7932 31.56L30.6732 29.38C31.2599 28.9667 31.9665 28.6467 32.7932 28.42C33.6199 28.1933 34.4599 28.08 35.3132 28.08C36.9532 28.08 38.2265 28.4667 39.1332 29.24C40.0399 30.0133 40.4932 31.22 40.4932 32.86V39H37.5732ZM34.2932 39.16C33.4532 39.16 32.7332 39.02 32.1332 38.74C31.5332 38.4467 31.0732 38.0533 30.7532 37.56C30.4332 37.0667 30.2732 36.5133 30.2732 35.9C30.2732 35.26 30.4265 34.7 30.7332 34.22C31.0532 33.74 31.5532 33.3667 32.2332 33.1C32.9132 32.82 33.7999 32.68 34.8932 32.68H37.7532V34.5H35.2332C34.4999 34.5 33.9932 34.62 33.7132 34.86C33.4465 35.1 33.3132 35.4 33.3132 35.76C33.3132 36.16 33.4665 36.48 33.7732 36.72C34.0932 36.9467 34.5265 37.06 35.0732 37.06C35.5932 37.06 36.0599 36.94 36.4732 36.7C36.8865 36.4467 37.1865 36.08 37.3732 35.6L37.8532 37.04C37.6265 37.7333 37.2132 38.26 36.6132 38.62C36.0132 38.98 35.2399 39.16 34.2932 39.16ZM43.817 39V28.24H46.797V31.28L46.377 30.4C46.697 29.64 47.2103 29.0667 47.917 28.68C48.6236 28.28 49.4836 28.08 50.497 28.08V30.96C50.3636 30.9467 50.2436 30.94 50.137 30.94C50.0303 30.9267 49.917 30.92 49.797 30.92C48.9436 30.92 48.2503 31.1667 47.717 31.66C47.197 32.14 46.937 32.8933 46.937 33.92V39H43.817ZM66.6516 28.08C67.505 28.08 68.2583 28.2533 68.9116 28.6C69.5783 28.9333 70.0983 29.4533 70.4716 30.16C70.8583 30.8533 71.0516 31.7467 71.0516 32.84V39H67.9316V33.32C67.9316 32.4533 67.7516 31.8133 67.3916 31.4C67.0316 30.9867 66.525 30.78 65.8716 30.78C65.4183 30.78 65.0116 30.8867 64.6516 31.1C64.2916 31.3 64.0116 31.6067 63.8116 32.02C63.6116 32.4333 63.5116 32.96 63.5116 33.6V39H60.3916V33.32C60.3916 32.4533 60.2116 31.8133 59.8516 31.4C59.505 30.9867 59.005 30.78 58.3516 30.78C57.8983 30.78 57.4916 30.8867 57.1316 31.1C56.7716 31.3 56.4916 31.6067 56.2916 32.02C56.0916 32.4333 55.9916 32.96 55.9916 33.6V39H52.8716V28.24H55.8516V31.18L55.2916 30.32C55.665 29.5867 56.1916 29.0333 56.8716 28.66C57.565 28.2733 58.3516 28.08 59.2316 28.08C60.2183 28.08 61.0783 28.3333 61.8116 28.84C62.5583 29.3333 63.0516 30.0933 63.2916 31.12L62.1916 30.82C62.5516 29.98 63.125 29.3133 63.9116 28.82C64.7116 28.3267 65.625 28.08 66.6516 28.08ZM80.9482 39V36.9L80.7482 36.44V32.68C80.7482 32.0133 80.5415 31.4933 80.1282 31.12C79.7282 30.7467 79.1082 30.56 78.2682 30.56C77.6949 30.56 77.1282 30.6533 76.5682 30.84C76.0215 31.0133 75.5549 31.2533 75.1682 31.56L74.0482 29.38C74.6349 28.9667 75.3415 28.6467 76.1682 28.42C76.9949 28.1933 77.8349 28.08 78.6882 28.08C80.3282 28.08 81.6015 28.4667 82.5082 29.24C83.4149 30.0133 83.8682 31.22 83.8682 32.86V39H80.9482ZM77.6682 39.16C76.8282 39.16 76.1082 39.02 75.5082 38.74C74.9082 38.4467 74.4482 38.0533 74.1282 37.56C73.8082 37.0667 73.6482 36.5133 73.6482 35.9C73.6482 35.26 73.8015 34.7 74.1082 34.22C74.4282 33.74 74.9282 33.3667 75.6082 33.1C76.2882 32.82 77.1749 32.68 78.2682 32.68H81.1282V34.5H78.6082C77.8749 34.5 77.3682 34.62 77.0882 34.86C76.8215 35.1 76.6882 35.4 76.6882 35.76C76.6882 36.16 76.8415 36.48 77.1482 36.72C77.4682 36.9467 77.9015 37.06 78.4482 37.06C78.9682 37.06 79.4349 36.94 79.8482 36.7C80.2615 36.4467 80.5615 36.08 80.7482 35.6L81.2282 37.04C81.0015 37.7333 80.5882 38.26 79.9882 38.62C79.3882 38.98 78.6149 39.16 77.6682 39.16ZM92.4701 39.16C91.3101 39.16 90.2767 38.9267 89.3701 38.46C88.4634 37.98 87.7501 37.32 87.2301 36.48C86.7234 35.64 86.4701 34.6867 86.4701 33.62C86.4701 32.54 86.7234 31.5867 87.2301 30.76C87.7501 29.92 88.4634 29.2667 89.3701 28.8C90.2767 28.32 91.3101 28.08 92.4701 28.08C93.6034 28.08 94.5901 28.32 95.4301 28.8C96.2701 29.2667 96.8901 29.94 97.2901 30.82L94.8701 32.12C94.5901 31.6133 94.2367 31.24 93.8101 31C93.3967 30.76 92.9434 30.64 92.4501 30.64C91.9167 30.64 91.4367 30.76 91.0101 31C90.5834 31.24 90.2434 31.58 89.9901 32.02C89.7501 32.46 89.6301 32.9933 89.6301 33.62C89.6301 34.2467 89.7501 34.78 89.9901 35.22C90.2434 35.66 90.5834 36 91.0101 36.24C91.4367 36.48 91.9167 36.6 92.4501 36.6C92.9434 36.6 93.3967 36.4867 93.8101 36.26C94.2367 36.02 94.5901 35.64 94.8701 35.12L97.2901 36.44C96.8901 37.3067 96.2701 37.98 95.4301 38.46C94.5901 38.9267 93.6034 39.16 92.4701 39.16ZM100.79 43.04C100.23 43.04 99.6769 42.9533 99.1302 42.78C98.5836 42.6067 98.1369 42.3667 97.7902 42.06L98.9302 39.84C99.1702 40.0533 99.4436 40.22 99.7502 40.34C100.07 40.46 100.384 40.52 100.69 40.52C101.13 40.52 101.477 40.4133 101.73 40.2C101.997 40 102.237 39.66 102.45 39.18L103.01 37.86L103.25 37.52L107.11 28.24H110.11L105.25 39.66C104.904 40.5267 104.504 41.2067 104.05 41.7C103.61 42.1933 103.117 42.54 102.57 42.74C102.037 42.94 101.444 43.04 100.79 43.04ZM102.63 39.42L97.8302 28.24H101.05L104.77 37.24L102.63 39.42Z" fill="#00709F"/>
</svg>
