<svg width="34" height="34" viewBox="0 0 34 34" fill="none" xmlns="http://www.w3.org/2000/svg">
<path d="M19.1717 2.87503C20.7568 1.28992 22.9067 0.399414 25.1484 0.399414C27.39 0.399414 29.5399 1.28992 31.125 2.87503C32.7101 4.46014 33.6006 6.61001 33.6006 8.8517C33.6006 11.0934 32.7101 13.2433 31.125 14.8284L14.8284 31.125C13.2433 32.7101 11.0934 33.6006 8.8517 33.6006C6.61001 33.6006 4.46014 32.7101 2.87503 31.125C1.28992 29.5399 0.399414 27.39 0.399414 25.1484C0.399414 22.9067 1.28992 20.7568 2.87503 19.1717L19.1717 2.87503ZM29.3567 4.64336C28.2406 3.52729 26.7268 2.90029 25.1484 2.90029C23.5699 2.90029 22.0562 3.52729 20.94 4.64336L13.675 11.9084L22.0917 20.325L29.3584 13.06C30.4744 11.9439 31.1014 10.4301 31.1014 8.8517C31.1014 7.27328 30.4744 5.75951 29.3584 4.64336H29.3567ZM15.0134 27.4617C15.2342 27.2247 15.3544 26.9113 15.3487 26.5875C15.3429 26.2637 15.2118 25.9547 14.9827 25.7257C14.7537 25.4966 14.4447 25.3655 14.1209 25.3597C13.7971 25.354 13.4837 25.4742 13.2467 25.695L10.845 28.095C10.3825 28.558 9.75691 28.8212 9.10252 28.8281C8.44812 28.8349 7.81713 28.5849 7.34503 28.1317L7.3167 28.105C7.19829 27.9913 7.05864 27.9021 6.90574 27.8423C6.75283 27.7826 6.58965 27.7536 6.42553 27.7569C6.2614 27.7602 6.09953 27.7958 5.94917 27.8617C5.79881 27.9276 5.6629 28.0225 5.5492 28.1409C5.43549 28.2593 5.34623 28.3989 5.28649 28.5518C5.22676 28.7047 5.19772 28.8679 5.20105 29.032C5.20438 29.1962 5.24 29.358 5.30589 29.5084C5.37177 29.6587 5.46662 29.7947 5.58503 29.9084L5.61336 29.935C6.55736 30.8417 7.81921 31.342 9.128 31.3286C10.4368 31.3152 11.6881 30.7891 12.6134 29.8634L15.0134 27.4617Z" fill="black" fill-opacity="0.4"/>
</svg>
