<svg width="60" height="60" viewBox="0 0 60 60" fill="none" xmlns="http://www.w3.org/2000/svg">
<path d="M1.18896 24.6295C1.24936 23.4583 1.68002 22.4279 2.42713 21.538C3.1023 20.7339 3.93917 20.138 4.96547 19.868C5.44722 19.7412 5.95299 19.7055 6.52114 19.6279C10.6251 19.6279 14.6557 19.6293 18.6864 19.6254C18.8245 19.6253 18.9626 19.5714 19.1007 19.5425C19.1007 19.5425 19.099 19.5523 19.1108 19.5398C19.1395 19.5062 19.1563 19.4851 19.1732 19.4639C19.1747 15.2867 19.17 11.1094 19.1813 6.93218C19.1848 5.62194 19.6677 4.47958 20.5035 3.47845C21.0405 2.83517 21.7234 2.37412 22.4652 2.02227C22.8734 1.82867 23.3511 1.78117 23.8682 1.66838C28.1374 1.6679 32.3359 1.66683 36.5344 1.66577C37.4661 1.7212 38.2871 2.09564 39.0162 2.63407C39.9154 3.29813 40.6016 4.15657 40.9348 5.24158C41.0776 5.70683 41.1287 6.20019 41.2217 6.75261C41.2214 10.9006 41.2201 14.9768 41.223 19.0531C41.2231 19.1938 41.2656 19.3345 41.2883 19.4752C41.2883 19.4752 41.3005 19.5037 41.3241 19.5427C41.4508 19.5975 41.5537 19.627 41.6567 19.627C45.7572 19.6278 49.8576 19.6259 53.958 19.6243C55.258 19.6776 56.4176 20.0585 57.4063 20.9539C58.1314 21.6106 58.6826 22.3549 58.9673 23.3507C58.989 23.5012 59.0112 23.5917 59.0335 23.6823C59.0335 23.6823 59.045 23.7148 59.0444 23.7702C59.045 28.3642 59.0462 32.9029 59.0473 37.4416C59.0473 37.4416 59.045 37.4772 59.0224 37.5188C58.9896 37.6807 58.9795 37.8009 58.9693 37.9211C58.9693 37.9211 58.9667 37.9535 58.9467 37.9817C58.91 38.0303 58.8974 38.0529 58.889 38.0779C58.6473 38.5407 58.4537 39.0375 58.1546 39.4599C57.3501 40.5963 56.1962 41.2219 54.864 41.5427C54.7009 41.582 54.5226 41.5583 54.2785 41.5629C50.0551 41.5624 45.9044 41.5617 41.7538 41.5668C41.6031 41.567 41.4525 41.6239 41.3018 41.6544C41.3018 41.6544 41.3001 41.6881 41.2758 41.7315C41.241 41.8663 41.2215 41.9577 41.2215 42.0491C41.2217 46.1538 41.2236 50.2584 41.2253 54.363C41.2082 55.8088 40.6158 57.0099 39.6394 58.0407C39.4339 58.2577 39.2118 58.478 38.9553 58.6223C38.709 58.761 38.4083 58.8758 38.1311 58.8766C32.9343 58.8913 27.7374 58.8767 22.5408 58.9033C21.9951 58.9061 21.5831 58.7277 21.2082 58.4075C19.8804 57.2732 19.1719 55.8461 19.1752 54.0779C19.1828 49.9869 19.1774 45.8959 19.1644 41.7505C19.1291 41.6789 19.1066 41.6618 19.0842 41.6446C19.0842 41.6446 19.0504 41.6428 19.0067 41.6194C18.8718 41.585 18.7806 41.5644 18.6895 41.5644C14.4717 41.5636 10.254 41.5646 6.03621 41.5654C4.95397 41.511 4.00817 41.0921 3.19105 40.4129C2.24898 39.6299 1.57621 38.6542 1.31398 37.4339C1.26268 37.1951 1.23184 36.952 1.19187 36.6395C1.19111 32.5886 1.19004 28.609 1.18896 24.6295ZM22.679 39.3199C22.679 44.1722 22.6772 49.0244 22.6853 53.8766C22.6856 54.0893 22.7763 54.3019 22.8374 54.5728C23.1135 55.2436 23.5493 55.7497 24.3279 55.9935C24.4062 56.0039 24.4845 56.0234 24.5629 56.0234C28.3285 56.0251 32.0942 56.0256 35.8598 56.0225C35.9748 56.0224 36.0898 55.9816 36.2584 55.934C36.9557 55.6916 37.4215 55.2262 37.6723 54.4629C37.6876 54.3594 37.7165 54.2558 37.7165 54.1523C37.717 49.3714 37.715 44.5904 37.718 39.7418C37.7233 38.9317 38.2538 38.2604 39.0529 38.145C39.8857 38.1187 40.7185 38.0713 41.5514 38.0697C45.5963 38.0618 49.6411 38.0669 53.686 38.0633C53.8539 38.0632 54.0217 38.0217 54.2429 37.9729C54.9487 37.7389 55.3878 37.2478 55.6587 36.5032C55.674 36.4001 55.7027 36.297 55.7028 36.1939C55.7044 32.5462 55.7043 28.8985 55.6991 25.2508C55.699 25.1264 55.6446 25.002 55.5613 24.8466C55.5308 24.7091 55.512 24.5678 55.4679 24.4348C55.2476 23.7696 54.7272 23.427 54.0538 23.1588C53.9357 23.1479 53.8177 23.1275 53.6997 23.1275C48.8193 23.1264 43.9389 23.1272 38.9994 23.1249C38.3263 22.912 37.823 22.5368 37.7188 21.7082C37.7188 16.9568 37.7193 12.2053 37.7158 7.45386C37.7157 7.29971 37.6735 7.14558 37.6389 6.96144C37.6389 6.96144 37.638 6.92911 37.6413 6.87105C37.6186 6.78069 37.5959 6.69033 37.56 6.54176C37.3012 5.91027 36.836 5.49568 36.1535 5.21431C36.0238 5.19818 35.8941 5.16805 35.7644 5.16796C32.0723 5.16537 28.3802 5.16485 24.688 5.16945C24.5498 5.16962 24.4117 5.22445 24.2457 5.30701C23.4825 5.46423 23.0763 5.99065 22.7856 6.72282C22.7501 6.88763 22.6838 7.0524 22.6836 7.21723C22.679 12.1274 22.6809 17.0375 22.6807 22.0053C22.4207 22.6023 22.0307 23.0444 21.2632 23.1257C16.4495 23.1258 11.6358 23.1249 6.82212 23.1297C6.64435 23.1299 6.46664 23.1856 6.26088 23.2676C5.44383 23.4764 4.88919 24.1045 4.80524 24.9301C4.7937 25.0342 4.77212 25.1383 4.77206 25.2424C4.77028 28.8073 4.7698 32.3721 4.77348 35.937C4.77361 36.0638 4.81778 36.1906 4.85358 36.3818C4.88569 36.5311 4.89815 36.6882 4.95332 36.8286C5.18408 37.4157 5.66574 37.7423 6.26463 38.0334C6.36911 38.0443 6.47354 38.0642 6.57808 38.0648C11.5507 38.0918 16.5233 38.1172 21.5558 38.145C22.0654 38.2814 22.4274 38.581 22.618 39.1241C22.6299 39.1483 22.647 39.168 22.6802 39.2124C22.6802 39.2124 22.6819 39.2435 22.679 39.3199Z" fill="#50D8BE"/>
<path d="M59.0773 37.4229C59.0462 32.9029 59.0451 28.3641 59.0455 23.7874C59.0729 23.8434 59.1214 23.9375 59.1215 24.0316C59.125 28.45 59.1243 32.8684 59.1233 37.2868C59.1233 37.3259 59.1128 37.365 59.0773 37.4229Z" fill="#7FE0CE"/>
<path d="M41.3389 41.6491C41.4527 41.6239 41.6033 41.5669 41.754 41.5668C45.9047 41.5617 50.0553 41.5624 54.2439 41.5638C54.1485 41.5914 54.0151 41.64 53.8816 41.6401C49.713 41.6442 45.5443 41.6436 41.3389 41.6491Z" fill="#6EDDC8"/>
<path d="M6.05469 41.5957C10.2542 41.5646 14.472 41.5636 18.6897 41.5644C18.7809 41.5644 18.872 41.585 18.9911 41.6133C15.855 41.6345 12.6908 41.6402 9.52662 41.6414C8.37539 41.6418 7.22416 41.6314 6.05469 41.5957Z" fill="#6EDDC8"/>
<path d="M41.2932 19.4376C41.2655 19.3345 41.223 19.1938 41.2229 19.0531C41.22 14.9769 41.2213 10.9006 41.2235 6.78699C41.25 6.86995 41.2963 6.99035 41.2964 7.11079C41.2997 11.2072 41.2986 15.3036 41.2932 19.4376Z" fill="#8BE3D2"/>
<path d="M53.9405 19.5945C49.8579 19.6259 45.7575 19.6278 41.657 19.627C41.554 19.627 41.4511 19.5975 41.3242 19.5583C42.2131 19.5398 43.1258 19.5485 44.0385 19.549C47.1881 19.5508 50.3377 19.5495 53.4873 19.5503C53.6324 19.5504 53.7776 19.5597 53.9405 19.5945Z" fill="#85E3D1"/>
<path d="M41.2553 54.3453C41.2238 50.2584 41.2219 46.1538 41.2217 42.0492C41.2217 41.9578 41.2412 41.8663 41.2698 41.7472C41.292 44.9048 41.2974 48.0901 41.299 51.2754C41.2995 52.2928 41.2901 53.3102 41.2553 54.3453Z" fill="#8BE3D2"/>
<path d="M36.5164 1.63554C32.3358 1.66682 28.1373 1.66788 23.9009 1.66739C23.9568 1.64001 24.0507 1.59167 24.1445 1.59158C28.2233 1.58795 32.3021 1.58854 36.3809 1.58939C36.4201 1.5894 36.4592 1.59978 36.5164 1.63554Z" fill="#73DFCA"/>
<path d="M19.0635 19.5457C18.9629 19.5714 18.8248 19.6253 18.6867 19.6254C14.656 19.6294 10.6253 19.6279 6.55713 19.6258C6.65334 19.5995 6.78707 19.553 6.92085 19.5528C10.9559 19.5487 14.991 19.5491 19.0635 19.5457Z" fill="#85E3D1"/>
<path d="M1.15929 24.6473C1.19027 28.609 1.19135 32.5886 1.19122 36.6058C1.16475 36.5495 1.11747 36.4556 1.11738 36.3616C1.11388 32.502 1.11459 28.6424 1.11544 24.7828C1.11545 24.7436 1.12454 24.7044 1.15929 24.6473Z" fill="#89E3D2"/>
<path d="M58.997 37.9052C58.9795 37.8009 58.9896 37.6807 59.0166 37.5356C59.0304 37.637 59.0275 37.7632 58.997 37.9052Z" fill="#5FDAC3"/>
<path d="M59.039 23.6522C59.0113 23.5917 58.989 23.5012 58.9678 23.3816C58.994 23.4424 59.0192 23.5323 59.039 23.6522Z" fill="#5FDAC3"/>
<path d="M58.9103 38.0704C58.8974 38.0529 58.9099 38.0303 58.9414 37.9971C58.9479 38.0104 58.9398 38.0367 58.9103 38.0704Z" fill="#5FDAC3"/>
<path d="M19.0928 41.6652C19.1067 41.6618 19.1291 41.679 19.1633 41.7139C19.1504 41.7164 19.1259 41.7011 19.0928 41.6652Z" fill="#6EDDC8"/>
<path d="M19.1522 19.4703C19.1562 19.485 19.1393 19.5062 19.1058 19.539C19.1031 19.5261 19.1172 19.5014 19.1522 19.4703Z" fill="#85E3D1"/>
<path d="M6.23682 38.0167C7.16138 37.9955 8.1139 37.9879 9.06642 37.9874C13.0496 37.9856 17.0328 37.9847 21.016 37.9896C21.1658 37.9897 21.3156 38.0521 21.4807 38.1142C16.5235 38.1172 11.5508 38.0918 6.57822 38.0648C6.47368 38.0642 6.36925 38.0443 6.23682 38.0167Z" fill="#67DCC6"/>
<path d="M22.6804 39.2817C22.7076 39.3773 22.7557 39.511 22.7558 39.6448C22.7595 43.9784 22.7557 48.312 22.762 52.6456C22.7628 53.2459 22.8106 53.8461 22.8308 54.4804C22.7763 54.3019 22.6856 54.0894 22.6853 53.8767C22.6772 49.0244 22.679 44.1722 22.6804 39.2817Z" fill="#66DCC5"/>
<path d="M39.0176 38.1438C39.1611 38.0904 39.3401 37.9928 39.5192 37.9925C44.3848 37.9851 49.2504 37.9877 54.1529 37.9941C54.022 38.0217 53.8541 38.0631 53.6862 38.0633C49.6414 38.0669 45.5965 38.0617 41.5517 38.0697C40.7188 38.0713 39.886 38.1187 39.0176 38.1438Z" fill="#67DCC6"/>
<path d="M22.8052 6.70007C22.8027 11.5302 22.7807 16.3831 22.7578 21.2359C22.7567 21.4605 22.7472 21.685 22.7117 21.9286C22.6808 17.0376 22.6789 12.1274 22.6835 7.21726C22.6837 7.05243 22.75 6.88765 22.8052 6.70007Z" fill="#66DCC5"/>
<path d="M54.0817 23.1756C52.5474 23.1966 50.9851 23.2038 49.4228 23.2047C46.1122 23.2066 42.8017 23.2055 39.4912 23.2045C39.3594 23.2045 39.2276 23.1938 39.0771 23.1578C43.9389 23.1271 48.8193 23.1264 53.6996 23.1275C53.8177 23.1275 53.9357 23.1479 54.0817 23.1756Z" fill="#73DFCA"/>
<path d="M21.3013 23.1267C21.1924 23.1535 21.0452 23.2019 20.898 23.202C16.0528 23.2061 11.2077 23.2056 6.32568 23.2106C6.46656 23.1856 6.64426 23.1299 6.82203 23.1297C11.6357 23.1249 16.4494 23.1258 21.3013 23.1267Z" fill="#73DFCA"/>
<path d="M37.7172 21.746C37.6901 21.6768 37.6424 21.57 37.6423 21.4631C37.6392 16.664 37.6403 11.865 37.646 7.02869C37.6737 7.14556 37.7158 7.29968 37.7159 7.45384C37.7195 12.2053 37.7189 16.9568 37.7172 21.746Z" fill="#78DFCB"/>
<path d="M37.6517 54.4881C37.6337 50.2843 37.636 46.0552 37.64 41.8261C37.6407 41.1656 37.6491 40.5052 37.6838 39.8271C37.7153 44.5904 37.7173 49.3713 37.7168 54.1523C37.7167 54.2558 37.6879 54.3594 37.6517 54.4881Z" fill="#8DE4D3"/>
<path d="M24.2998 55.9767C26.8102 55.9555 29.3485 55.9501 31.8868 55.9474C33.3015 55.9459 34.7162 55.9489 36.1678 55.9549C36.0897 55.9817 35.9747 56.0225 35.8597 56.0226C32.094 56.0257 28.3284 56.0251 24.5627 56.0235C24.4844 56.0234 24.4061 56.004 24.2998 55.9767Z" fill="#8BE3D2"/>
<path d="M36.1793 5.23505C33.8255 5.25223 31.4462 5.24792 29.0669 5.24541C27.4937 5.24375 25.9205 5.24467 24.3105 5.24913C24.4119 5.22447 24.55 5.16964 24.6882 5.16947C28.3804 5.16487 32.0725 5.16539 35.7646 5.16798C35.8943 5.16807 36.024 5.1982 36.1793 5.23505Z" fill="#86E2D1"/>
<path d="M55.6373 36.528C55.618 32.6856 55.6203 28.8184 55.6191 24.9144C55.6447 25.002 55.6991 25.1263 55.6993 25.2508C55.7045 28.8985 55.7046 32.5462 55.7029 36.1939C55.7029 36.297 55.6742 36.4001 55.6373 36.528Z" fill="#6EDDC8"/>
<path d="M4.82357 24.9026C4.84589 27.1725 4.85137 29.4698 4.85399 31.7671C4.8557 33.2592 4.85323 34.7513 4.84716 36.2804C4.81806 36.1906 4.7739 36.0638 4.77377 35.937C4.77009 32.3721 4.77057 28.8073 4.77235 25.2424C4.7724 25.1383 4.79398 25.0342 4.82357 24.9026Z" fill="#86E2D1"/>
<path d="M37.6399 6.9001C37.6129 6.83935 37.5876 6.74956 37.5679 6.62988C37.5961 6.69035 37.6188 6.78071 37.6399 6.9001Z" fill="#78DFCB"/>
<path d="M22.6104 39.106C22.6268 39.1046 22.6512 39.1212 22.6726 39.1605C22.6473 39.168 22.6302 39.1483 22.6104 39.106Z" fill="#66DCC5"/>
</svg>
