<svg width="12" height="12" viewBox="0 0 12 12" fill="none" xmlns="http://www.w3.org/2000/svg">
<path d="M10.3125 11.6875L6.8125 8.1875C6.5 8.4375 6.14062 8.63542 5.73438 8.78125C5.32812 8.92708 4.89583 9 4.4375 9C3.30208 9 2.34125 8.60687 1.555 7.82062C0.768333 7.03396 0.375 6.07292 0.375 4.9375C0.375 3.80208 0.768333 2.84104 1.555 2.05438C2.34125 1.26813 3.30208 0.875 4.4375 0.875C5.57292 0.875 6.53396 1.26813 7.32062 2.05438C8.10687 2.84104 8.5 3.80208 8.5 4.9375C8.5 5.39583 8.42708 5.82812 8.28125 6.23438C8.13542 6.64062 7.9375 7 7.6875 7.3125L11.2031 10.8281C11.3177 10.9427 11.375 11.0833 11.375 11.25C11.375 11.4167 11.3125 11.5625 11.1875 11.6875C11.0729 11.8021 10.9271 11.8594 10.75 11.8594C10.5729 11.8594 10.4271 11.8021 10.3125 11.6875ZM4.4375 7.75C5.21875 7.75 5.88292 7.47667 6.43 6.93C6.97667 6.38292 7.25 5.71875 7.25 4.9375C7.25 4.15625 6.97667 3.49208 6.43 2.945C5.88292 2.39833 5.21875 2.125 4.4375 2.125C3.65625 2.125 2.99208 2.39833 2.445 2.945C1.89833 3.49208 1.625 4.15625 1.625 4.9375C1.625 5.71875 1.89833 6.38292 2.445 6.93C2.99208 7.47667 3.65625 7.75 4.4375 7.75Z" fill="#373737"/>
</svg>
